Coordinates
version=1
nRows=41
nColumns=38
inDegrees=no

Units are S.I. units (second, meters, Newtons, ...)
If the header above contains a line with 'inDegrees', this indicates whether rotational values are in degrees (yes) or radians (no).

endheader
time	pelvis_tilt	pelvis_list	pelvis_rotation	pelvis_tx	pelvis_ty	pelvis_tz	hip_flexion_r	hip_adduction_r	hip_rotation_r	knee_angle_r	ankle_angle_r	subtalar_angle_r	mtp_angle_r	hip_flexion_l	hip_adduction_l	hip_rotation_l	knee_angle_l	ankle_angle_l	subtalar_angle_l	mtp_angle_l	lumbar_extension	lumbar_bending	lumbar_rotation	arm_flex_r	arm_add_r	arm_rot_r	elbow_flex_r	pro_sup_r	wrist_flex_r	wrist_dev_r	arm_flex_l	arm_add_l	arm_rot_l	elbow_flex_l	pro_sup_l	wrist_flex_l	wrist_dev_l
15	1.27649	1.4263	0.284814	0.664174	-0.690203	0.971704	0.223742	0.0897611	-0.325128	0.28265	0.0117878	0	0	-0.0504855	-0.131378	-0.0600452	0.121471	0.169379	0	0	-0.0565761	0.221978	0.0282591	0.309121	-0.293195	0.125575	1.59516	1.5708	0	0	0.45189	-0.0962289	0.109306	1.34214	0.844253	0	0
15.01	1.24834	1.42449	0.315321	0.661735	-0.694214	0.971095	0.235515	0.0868346	-0.326447	0.287094	0.00829867	0	0	-0.0505092	-0.127893	-0.0560784	0.102169	0.163211	0	0	-0.0543468	0.221303	0.0229781	0.313029	-0.295207	0.123079	1.59171	1.5708	0	0	0.453985	-0.0946926	0.111787	1.34558	0.846463	0	0
15.02	1.2206	1.42338	0.345096	0.659324	-0.698291	0.970597	0.246964	0.0831292	-0.327102	0.29108	0.00465412	0	0	-0.0502844	-0.123683	-0.0508915	0.0830921	0.153505	0	0	-0.0527669	0.219671	0.0181505	0.316828	-0.296897	0.120164	1.58825	1.5708	0	0	0.456412	-0.0930847	0.1138	1.34933	0.849117	0	0
15.03	1.19631	1.42323	0.370947	0.65702	-0.70253	0.9702	0.258031	0.0784081	-0.327942	0.295829	0.00105682	0	0	-0.0492395	-0.118847	-0.0458571	0.0669197	0.143049	0	0	-0.0503064	0.216708	0.0221462	0.313385	-0.300869	0.106701	1.58841	1.5708	0	0	0.480062	-0.134546	0.358265	1.23606	1.5708	0	0
15.04	1.15995	1.42226	0.407467	0.654693	-0.706695	0.969756	0.271342	0.0734254	-0.328552	0.30146	-0.00268733	0	0	-0.0448307	-0.114042	-0.0425185	0.0540786	0.134051	0	0	-0.0506843	0.214196	0.0113833	0.324844	-0.299247	0.112414	1.58118	1.5708	0	0	0.462029	-0.0898619	0.124795	1.35643	0.925538	0	0
15.05	1.12614	1.42206	0.440414	0.652554	-0.710913	0.969447	0.283489	0.0683524	-0.327477	0.306086	-0.00648963	0	0	-0.0398906	-0.108919	-0.0402585	0.0440861	0.125974	0	0	-0.0498418	0.21056	0.00981261	0.328934	-0.300219	0.108781	1.57744	1.5708	0	0	0.464767	-0.0883572	0.125395	1.36035	0.903858	0	0
15.06	1.09158	1.42242	0.472362	0.650585	-0.715097	0.969238	0.294977	0.0631885	-0.324762	0.309895	-0.0102543	0	0	-0.0346527	-0.103456	-0.0396712	0.0359346	0.11837	0	0	-0.0496755	0.206103	0.0102577	0.332695	-0.30124	0.105221	1.57439	1.5708	0	0	0.467413	-0.0867739	0.12639	1.36431	0.888701	0	0
15.07	1.05803	1.42336	0.501453	0.648809	-0.719193	0.969159	0.305454	0.0578956	-0.32161	0.313034	-0.0136321	0	0	-0.0297166	-0.0977699	-0.0412823	0.0292578	0.111167	0	0	-0.0503954	0.200996	0.0126507	0.33647	-0.30223	0.102005	1.57148	1.5708	0	0	0.469849	-0.084782	0.127145	1.36823	0.879431	0	0
15.08	1.02553	1.42446	0.528626	0.647153	-0.723235	0.969156	0.315177	0.0525498	-0.318965	0.315637	-0.0163464	0	0	-0.0249948	-0.0922791	-0.0441891	0.0234798	0.104324	0	0	-0.051599	0.195806	0.0159606	0.340237	-0.303218	0.098344	1.56899	1.5708	0	0	0.471965	-0.0827819	0.127789	1.37262	0.874529	0	0
15.09	0.99264	1.42515	0.555624	0.645605	-0.727223	0.969144	0.324766	0.0476237	-0.316635	0.318103	-0.0179246	0	0	-0.0195819	-0.0871866	-0.0477253	0.0190369	0.0982202	0	0	-0.0526308	0.190927	0.0198951	0.343713	-0.30482	0.0956617	1.56757	1.5708	0	0	0.47368	-0.0808224	0.12828	1.37742	0.872164	0	0
15.1	0.960828	1.42503	0.581149	0.644134	-0.731125	0.969062	0.334381	0.0435373	-0.314893	0.320524	-0.0183621	0	0	-0.0134698	-0.0828909	-0.0511782	0.0157777	0.0928855	0	0	-0.0532563	0.186965	0.0244368	0.347157	-0.307202	0.0941676	1.56654	1.5708	0	0	0.475182	-0.0784321	0.128421	1.38182	0.870559	0	0
15.11	0.93224	1.42385	0.603	0.642748	-0.734919	0.968924	0.343564	0.0408298	-0.313488	0.321992	-0.0184537	0	0	-0.00676057	-0.0797493	-0.0546399	0.0137361	0.0884964	0	0	-0.0535785	0.184357	0.0297591	0.350685	-0.310463	0.0936827	1.56538	1.5708	0	0	0.476496	-0.0753968	0.12811	1.3854	0.869778	0	0
15.12	0.910703	1.42217	0.617109	0.641527	-0.738531	0.968813	0.351515	0.0396246	-0.312097	0.322675	-0.0177041	0	0	-0.000491248	-0.0776924	-0.0589126	0.0126601	0.085054	0	0	-0.0542582	0.18281	0.0359604	0.353796	-0.314518	0.0941548	1.56462	1.5708	0	0	0.477591	-0.0721259	0.12751	1.38814	0.86972	0	0
15.13	0.89377	1.42073	0.625924	0.640448	-0.741954	0.968777	0.358414	0.0389621	-0.310612	0.323382	-0.0159478	0	0	0.00422464	-0.0758592	-0.0637475	0.0104521	0.0808722	0	0	-0.0553833	0.181432	0.0427413	0.356608	-0.318515	0.0944571	1.56371	1.5708	0	0	0.47827	-0.0687678	0.126066	1.39067	0.870036	0	0
15.14	0.882304	1.41942	0.629074	0.639478	-0.745249	0.968793	0.364408	0.0389872	-0.309321	0.324513	-0.0140727	0	0	0.00860169	-0.0745305	-0.0695886	0.00946396	0.0773274	0	0	-0.0570641	0.180445	0.0496179	0.359638	-0.322529	0.0955603	1.56234	1.5708	0	0	0.478631	-0.0654007	0.123948	1.39352	0.871058	0	0
15.15	0.872951	1.41832	0.629828	0.638588	-0.748415	0.968868	0.369858	0.0393495	-0.307777	0.326501	-0.0120813	0	0	0.0119545	-0.0732616	-0.0751441	0.00749151	0.0730774	0	0	-0.0589569	0.179579	0.0564595	0.362667	-0.326415	0.0975021	1.56085	1.5708	0	0	0.478394	-0.0621052	0.121279	1.39634	0.872826	0	0
15.16	0.865117	1.41756	0.628824	0.637806	-0.751426	0.969009	0.374958	0.0397363	-0.306196	0.330196	-0.00935191	0	0	0.0136721	-0.0720186	-0.0797997	0.00360229	0.0680689	0	0	-0.0610209	0.178554	0.0634855	0.36529	-0.329945	0.0993515	1.55939	1.5708	0	0	0.477657	-0.059105	0.119162	1.39922	0.874867	0	0
15.17	0.860285	1.41703	0.625139	0.637089	-0.754236	0.969188	0.379612	0.0399006	-0.306233	0.335917	-0.00621297	0	0	0.0148192	-0.0710256	-0.0841376	5.32795e-05	0.063789	0	0	-0.063232	0.177616	0.0699602	0.367539	-0.332901	0.101015	1.55806	1.5708	0	0	0.476186	-0.0563243	0.116871	1.40259	0.876236	0	0
15.18	0.85757	1.41652	0.620063	0.636363	-0.75687	0.969382	0.383863	0.0399376	-0.306895	0.343333	-0.00324547	0	0	0.0164577	-0.0702596	-0.0886829	0	0.0605954	0	0	-0.065194	0.177008	0.0752778	0.369603	-0.3354	0.102858	1.55659	1.5708	0	0	0.473876	-0.0536409	0.113739	1.40638	0.877137	0	0
15.19	0.853283	1.41624	0.616709	0.635651	-0.75934	0.969559	0.388243	0.0397566	-0.306869	0.352584	-0.000454947	0	0	0.0184165	-0.0691774	-0.0936418	0	0.0579858	0	0	-0.066587	0.176162	0.0799784	0.371685	-0.337588	0.105272	1.55464	1.5708	0	0	0.470852	-0.0515889	0.110599	1.41097	0.878116	0	0
15.2	0.85052	1.41584	0.612642	0.634962	-0.76163	0.969737	0.392105	0.0397056	-0.306619	0.363006	0.00285906	0	0	0.0206521	-0.068451	-0.098346	0	0.0560759	0	0	-0.0676601	0.175543	0.0838458	0.372938	-0.339166	0.106387	1.55377	1.5708	0	0	0.467614	-0.0495574	0.107087	1.41563	0.879806	0	0
15.21	0.850923	1.41548	0.606634	0.634248	-0.763733	0.969932	0.394717	0.0394803	-0.306765	0.373869	0.00661475	0	0	0.022722	-0.0680068	-0.102282	0	0.0545305	0	0	-0.0687202	0.1753	0.086455	0.374109	-0.340041	0.107143	1.55292	1.5708	0	0	0.46434	-0.0481359	0.10479	1.41969	0.881454	0	0
15.22	0.851194	1.4156	0.601779	0.633514	-0.765711	0.970134	0.396548	0.0383698	-0.307116	0.385618	0.0107387	0	0	0.0242005	-0.0671022	-0.105247	0	0.0520538	0	0	-0.069666	0.174635	0.0878986	0.374407	-0.34105	0.107723	1.55309	1.5708	0	0	0.461024	-0.0472771	0.103142	1.42355	0.883135	0	0
15.23	0.852476	1.41577	0.597092	0.632757	-0.767569	0.970314	0.397414	0.0369949	-0.307734	0.397292	0.0147038	0	0	0.0258144	-0.066253	-0.107272	0	0.0494092	0	0	-0.0702554	0.174122	0.0878295	0.374791	-0.341691	0.109109	1.55266	1.5708	0	0	0.457673	-0.0470151	0.101868	1.42721	0.884779	0	0
15.24	0.856302	1.41622	0.590821	0.631997	-0.769302	0.970483	0.397108	0.0351915	-0.308908	0.409213	0.0187962	0	0	0.0274486	-0.0655039	-0.109392	0	0.0479033	0	0	-0.071077	0.173666	0.0868759	0.374968	-0.341853	0.110067	1.55229	1.5708	0	0	0.454445	-0.0472542	0.101029	1.43098	0.887049	0	0
15.25	0.861598	1.41695	0.584082	0.63125	-0.770904	0.970636	0.395858	0.0328344	-0.310621	0.421308	0.0226716	0	0	0.029074	-0.0647624	-0.11151	0.000969183	0.0474714	0	0	-0.0720408	0.173098	0.0851761	0.374173	-0.341817	0.109899	1.55296	1.5708	0	0	0.451334	-0.0481673	0.101303	1.43508	0.889022	0	0
15.26	0.867404	1.41805	0.577521	0.630509	-0.772397	0.970774	0.393803	0.0300004	-0.311699	0.433461	0.02644	0	0	0.0303889	-0.0637609	-0.113046	0.00298353	0.0468197	0	0	-0.0729953	0.172303	0.0832943	0.372733	-0.341981	0.109685	1.55382	1.5708	0	0	0.448091	-0.0491866	0.101797	1.43923	0.890887	0	0
15.27	0.867406	1.41006	0.569449	0.629548	-0.774994	0.971337	0.395551	0.0356009	-0.319331	0.436423	0.0191471	0	0	0.0391474	-0.0704344	-0.119443	0.00724518	0.0454319	0	0	-0.0722696	0.18164	0.089642	0.374278	-0.346499	0.111895	1.5542	1.5708	0	0	0.445119	-0.0453975	0.0989994	1.43903	0.891464	0	0
15.28	0.874248	1.4111	0.562165	0.628909	-0.776281	0.971421	0.392468	0.0331058	-0.317866	0.448507	0.0238115	0	0	0.0403642	-0.0698265	-0.121102	0.00992414	0.0458622	0	0	-0.0731598	0.181207	0.0883012	0.372193	-0.34717	0.112341	1.55517	1.5708	0	0	0.441755	-0.0462151	0.0995789	1.44214	0.891979	0	0
15.29	0.887658	1.42206	0.556627	0.628527	-0.776276	0.971043	0.384427	0.021257	-0.307888	0.470414	0.0405019	0	0	0.0330002	-0.0606891	-0.115271	0.00911983	0.0463119	0	0	-0.0759025	0.169973	0.0783287	0.365741	-0.343493	0.109398	1.55788	1.5708	0	0	0.438022	-0.053027	0.10502	1.45006	0.891726	0	0
15.3	0.884874	1.41436	0.551849	0.627719	-0.778604	0.971521	0.385178	0.0265462	-0.311789	0.473068	0.0354948	0	0	0.0414842	-0.0671052	-0.120935	0.0130711	0.0452224	0	0	-0.0747164	0.179049	0.0852193	0.365005	-0.348436	0.110232	1.56045	1.5708	0	0	0.434875	-0.049355	0.102419	1.4497	0.891959	0	0
15.31	0.89233	1.4252	0.55192	0.62742	-0.778467	0.971027	0.377504	0.0151587	-0.298605	0.494185	0.0523909	0	0	0.0354747	-0.0575363	-0.116447	0.0133436	0.0463951	0	0	-0.0761677	0.167645	0.0763425	0.357202	-0.345245	0.107004	1.56448	1.5708	0	0	0.430687	-0.0554257	0.106453	1.45747	0.891428	0	0
15.32	0.897356	1.42654	0.547072	0.627009	-0.77938	0.971019	0.373164	0.0125818	-0.293692	0.50583	0.0579126	0	0	0.0367081	-0.0565768	-0.117525	0.0165146	0.0475068	0	0	-0.0760979	0.166987	0.075516	0.352171	-0.346028	0.10574	1.56815	1.5708	0	0	0.42678	-0.056519	0.107108	1.46039	0.891557	0	0
15.33	0.901606	1.4279	0.542374	0.626699	-0.780198	0.971017	0.368534	0.0102296	-0.288201	0.516863	0.063118	0	0	0.0373487	-0.0555271	-0.118753	0.0187132	0.0482262	0	0	-0.0759528	0.16637	0.0756757	0.346585	-0.34681	0.104069	1.5723	1.5708	0	0	0.422585	-0.0576528	0.108333	1.46352	0.891591	0	0
15.34	0.903755	1.42945	0.539247	0.626438	-0.780945	0.971015	0.363635	0.00789622	-0.281898	0.526883	0.0678076	0	0	0.0373368	-0.0540729	-0.11967	0.019458	0.0478871	0	0	-0.0756465	0.16563	0.0763988	0.340937	-0.347585	0.10259	1.57628	1.5708	0	0	0.418052	-0.0587441	0.10913	1.46706	0.891619	0	0
15.35	0.89861	1.42214	0.535636	0.626011	-0.782787	0.971492	0.362606	0.0135093	-0.28235	0.527334	0.0624507	0	0	0.0439762	-0.060222	-0.125609	0.0212188	0.0455322	0	0	-0.0739394	0.174854	0.0852904	0.338129	-0.352317	0.102863	1.58009	1.5708	0	0	0.413464	-0.055006	0.106458	1.46742	0.891995	0	0
15.36	0.905074	1.4326	0.534567	0.626212	-0.782287	0.971014	0.353426	0.00398558	-0.267382	0.545247	0.0773235	0	0	0.0365989	-0.0510388	-0.121634	0.0192153	0.0454739	0	0	-0.0748278	0.164065	0.0792915	0.328472	-0.348816	0.0992686	1.5852	1.5708	0	0	0.408034	-0.0608536	0.110215	1.47571	0.891776	0	0
15.37	0.902787	1.42489	0.528208	0.625946	-0.784001	0.971503	0.351308	0.0105301	-0.267991	0.543628	0.0732308	0	0	0.0433258	-0.0579409	-0.127202	0.0219481	0.0447626	0	0	-0.0731066	0.174075	0.0882443	0.325244	-0.353529	0.0995181	1.58903	1.5708	0	0	0.403299	-0.0566806	0.107005	1.47563	0.891885	0	0
15.38	0.908877	1.43463	0.5278	0.626243	-0.78336	0.970983	0.341375	0.00186857	-0.254554	0.558821	0.0892471	0	0	0.0369697	-0.0494233	-0.12295	0.0214548	0.0463828	0	0	-0.073293	0.164121	0.0822197	0.315289	-0.349682	0.0952105	1.59406	1.5708	0	0	0.397279	-0.0621074	0.109986	1.48446	0.891007	0	0
15.39	0.907422	1.42615	0.520516	0.626169	-0.78492	0.971471	0.338484	0.00923478	-0.25644	0.554732	0.08592	0	0	0.0441192	-0.0573744	-0.12896	0.025044	0.0459876	0	0	-0.0713438	0.174962	0.0917017	0.311216	-0.353996	0.0941359	1.59863	1.5708	0	0	0.391932	-0.0577357	0.106881	1.48505	0.891033	0	0
15.4	0.911674	1.43577	0.52069	0.626783	-0.784202	0.970957	0.32801	0.00122841	-0.243317	0.567097	0.102225	0	0	0.0377618	-0.049126	-0.1264	0.0245277	0.0475531	0	0	-0.0715494	0.164794	0.0868409	0.300456	-0.349927	0.0898938	1.60596	1.5708	0	0	0.385136	-0.0634463	0.109508	1.49516	0.890367	0	0
